HIERARCHY
ROOT Hips
{
  OFFSET 0.609881 101.725 1.33503
  CHANNELS 6 Xposition Yposition Zposition Zrotation Xrotation Yrotation
  JOINT Spine
  {
    OFFSET 0 10.1816 0.131521
    CHANNELS 6 Xposition Yposition Zposition Zrotation Xrotation Yrotation
    JOINT Spine1
    {
      OFFSET 0 10.0835 -1.0008
      CHANNELS 6 Xposition Yposition Zposition Zrotation Xrotation Yrotation
      JOINT Spine2
      {
        OFFSET 0 9.10001 -1.37342
        CHANNELS 6 Xposition Yposition Zposition Zrotation Xrotation Yrotation
        JOINT Neck
        {
          OFFSET 0 16.6717 -2.51617
          CHANNELS 6 Xposition Yposition Zposition Zrotation Xrotation Yrotation
          JOINT Head
          {
            OFFSET 0 9.61788 1.68501
            CHANNELS 6 Xposition Yposition Zposition Zrotation Xrotation Yrotation
            JOINT HeadTop_End
            {
              OFFSET 0 17.8152 2.58499
              CHANNELS 6 Xposition Yposition Zposition Zrotation Xrotation Yrotation
              End Site
              {
                OFFSET 0 0 0
              }
            }
            JOINT LeftEye
            {
              OFFSET 3.06756 6.40951 9.28355
              CHANNELS 6 Xposition Yposition Zposition Zrotation Xrotation Yrotation
              End Site
              {
                OFFSET 0 0 0
              }
            }
            JOINT RightEye
            {
              OFFSET -3.06755 6.4095 9.28355
              CHANNELS 6 Xposition Yposition Zposition Zrotation Xrotation Yrotation
              End Site
              {
                OFFSET 0 0 0
              }
            }
          }
        }
        JOINT LeftShoulder
        {
          OFFSET 4.57045 10.946 -2.62799
          CHANNELS 6 Xposition Yposition Zposition Zrotation Xrotation Yrotation
          JOINT LeftArm
          {
            OFFSET 10.5924 -0.524583 -2.23212
            CHANNELS 6 Xposition Yposition Zposition Zrotation Xrotation Yrotation
            JOINT LeftForeArm
            {
              OFFSET 27.8415 -8.94286e-05 3.74589e-05
              CHANNELS 6 Xposition Yposition Zposition Zrotation Xrotation Yrotation
              JOINT LeftHand
              {
                OFFSET 28.3288 -1.74407e-05 3.78045e-05
                CHANNELS 6 Xposition Yposition Zposition Zrotation Xrotation Yrotation
                JOINT LeftHandThumb1
                {
                  OFFSET 2.46614 -1.57505 2.68241
                  CHANNELS 6 Xposition Yposition Zposition Zrotation Xrotation Yrotation
                  JOINT LeftHandThumb2
                  {
                    OFFSET 3.2298 -1.86469 1.86468
                    CHANNELS 6 Xposition Yposition Zposition Zrotation Xrotation Yrotation
                    JOINT LeftHandThumb3
                    {
                      OFFSET 2.65257 -1.53149 1.53147
                      CHANNELS 6 Xposition Yposition Zposition Zrotation Xrotation Yrotation
                      End Site
                      {
                        OFFSET 1.95457 -1.1285 1.12849
                      }
                    }
                  }
                }
                JOINT LeftHandIndex1
                {
                  OFFSET 9.1093 -0.517083 2.26007
                  CHANNELS 6 Xposition Yposition Zposition Zrotation Xrotation Yrotation
                  JOINT LeftHandIndex2
                  {
                    OFFSET 3.67641 0 2.92425e-05
                    CHANNELS 6 Xposition Yposition Zposition Zrotation Xrotation Yrotation
                    JOINT LeftHandIndex3
                    {
                      OFFSET 2.88306 3.8512e-05 -4.27648e-05
                      CHANNELS 6 Xposition Yposition Zposition Zrotation Xrotation Yrotation
                      End Site
                      {
                        OFFSET 2.39272 3.70259e-05 3.35544e-05
                      }
                    }
                  }
                }
                JOINT LeftHandMiddle1
                {
                  OFFSET 9.5334 -3.3924e-05 1.3937e-05
                  CHANNELS 6 Xposition Yposition Zposition Zrotation Xrotation Yrotation
                  JOINT LeftHandMiddle2
                  {
                    OFFSET 3.69824 0 1.7917e-05
                    CHANNELS 6 Xposition Yposition Zposition Zrotation Xrotation Yrotation
                    JOINT LeftHandMiddle3
                    {
                      OFFSET 2.95092 -3.93761e-05 1.6448e-05
                      CHANNELS 6 Xposition Yposition Zposition Zrotation Xrotation Yrotation
                      End Site
                      {
                        OFFSET 2.8339 -3.89348e-05 0
                      }
                    }
                  }
                }
                JOINT LeftHandRing1
                {
                  OFFSET 9.10453 -0.0439395 -1.86508
                  CHANNELS 6 Xposition Yposition Zposition Zrotation Xrotation Yrotation
                  JOINT LeftHandRing2
                  {
                    OFFSET 3.15403 0 1.04257e-05
                    CHANNELS 6 Xposition Yposition Zposition Zrotation Xrotation Yrotation
                    JOINT LeftHandRing3
                    {
                      OFFSET 2.93767 -4.54586e-05 0
                      CHANNELS 6 Xposition Yposition Zposition Zrotation Xrotation Yrotation
                      End Site
                      {
                        OFFSET 2.64745 -4.98044e-05 0
                      }
                    }
                  }
                }
                JOINT LeftHandPinky1
                {
                  OFFSET 8.07778 -0.488668 -3.80607
                  CHANNELS 6 Xposition Yposition Zposition Zrotation Xrotation Yrotation
                  JOINT LeftHandPinky2
                  {
                    OFFSET 3.60003 0 -2.62388e-05
                    CHANNELS 6 Xposition Yposition Zposition Zrotation Xrotation Yrotation
                    JOINT LeftHandPinky3
                    {
                      OFFSET 2.11421 1.95383e-05 0
                      CHANNELS 6 Xposition Yposition Zposition Zrotation Xrotation Yrotation
                      End Site
                      {
                        OFFSET 1.97568 1.24057e-05 -4.43014e-05
                      }
                    }
                  }
                }
              }
            }
          }
        }
        JOINT RightShoulder
        {
          OFFSET -4.56997 10.9462 -2.62802
          CHANNELS 6 Xposition Yposition Zposition Zrotation Xrotation Yrotation
          JOINT RightArm
          {
            OFFSET -10.5928 -0.524798 -2.2321
            CHANNELS 6 Xposition Yposition Zposition Zrotation Xrotation Yrotation
            JOINT RightForeArm
            {
              OFFSET -27.8415 -3.30792e-05 1.16763e-05
              CHANNELS 6 Xposition Yposition Zposition Zrotation Xrotation Yrotation
              JOINT RightHand
              {
                OFFSET -28.3288 0 5.5816e-05
                CHANNELS 6 Xposition Yposition Zposition Zrotation Xrotation Yrotation
                JOINT RightHandPinky1
                {
                  OFFSET -8.07667 -0.488459 -3.80601
                  CHANNELS 6 Xposition Yposition Zposition Zrotation Xrotation Yrotation
                  JOINT RightHandPinky2
                  {
                    OFFSET -3.60003 3.96767e-05 5.08144e-05
                    CHANNELS 6 Xposition Yposition Zposition Zrotation Xrotation Yrotation
                    JOINT RightHandPinky3
                    {
                      OFFSET -2.11421 1.51379e-05 1.47938e-05
                      CHANNELS 6 Xposition Yposition Zposition Zrotation Xrotation Yrotation
                      End Site
                      {
                        OFFSET -1.97568 -1.8522e-05 0
                      }
                    }
                  }
                }
                JOINT RightHandRing1
                {
                  OFFSET -9.10359 -0.0439143 -1.86507
                  CHANNELS 6 Xposition Yposition Zposition Zrotation Xrotation Yrotation
                  JOINT RightHandRing2
                  {
                    OFFSET -3.15403 2.39973e-05 4.88512e-05
                    CHANNELS 6 Xposition Yposition Zposition Zrotation Xrotation Yrotation
                    JOINT RightHandRing3
                    {
                      OFFSET -2.93767 -4.16007e-05 -3.96606e-05
                      CHANNELS 6 Xposition Yposition Zposition Zrotation Xrotation Yrotation
                      End Site
                      {
                        OFFSET -2.64745 2.46082e-05 0
                      }
                    }
                  }
                }
                JOINT RightHandMiddle1
                {
                  OFFSET -9.5325 -1.63123e-05 1.67918e-05
                  CHANNELS 6 Xposition Yposition Zposition Zrotation Xrotation Yrotation
                  JOINT RightHandMiddle2
                  {
                    OFFSET -3.69824 1.5067e-05 -2.25455e-05
                    CHANNELS 6 Xposition Yposition Zposition Zrotation Xrotation Yrotation
                    JOINT RightHandMiddle3
                    {
                      OFFSET -2.95092 0 0
                      CHANNELS 6 Xposition Yposition Zposition Zrotation Xrotation Yrotation
                      End Site
                      {
                        OFFSET -2.8339 0 5.37877e-05
                      }
                    }
                  }
                }
                JOINT RightHandIndex1
                {
                  OFFSET -9.10828 -0.516789 2.26012
                  CHANNELS 6 Xposition Yposition Zposition Zrotation Xrotation Yrotation
                  JOINT RightHandIndex2
                  {
                    OFFSET -3.67641 1.92272e-05 3.23557e-05
                    CHANNELS 6 Xposition Yposition Zposition Zrotation Xrotation Yrotation
                    JOINT RightHandIndex3
                    {
                      OFFSET -2.88306 -4.96012e-05 4.0449e-05
                      CHANNELS 6 Xposition Yposition Zposition Zrotation Xrotation Yrotation
                      End Site
                      {
                        OFFSET -2.39272 2.68147e-05 2.80201e-05
                      }
                    }
                  }
                }
                JOINT RightHandThumb1
                {
                  OFFSET -2.46481 -1.57271 2.68263
                  CHANNELS 6 Xposition Yposition Zposition Zrotation Xrotation Yrotation
                  JOINT RightHandThumb2
                  {
                    OFFSET -3.22977 -1.86471 1.86472
                    CHANNELS 6 Xposition Yposition Zposition Zrotation Xrotation Yrotation
                    JOINT RightHandThumb3
                    {
                      OFFSET -2.65261 -1.53145 1.53145
                      CHANNELS 6 Xposition Yposition Zposition Zrotation Xrotation Yrotation
                      End Site
                      {
                        OFFSET -1.95458 -1.12846 1.12851
                      }
                    }
                  }
                }
              }
            }
          }
        }
      }
    }
  }
  JOINT LeftUpLeg
  {
    OFFSET 8.20778 -6.75171 -1.59956
    CHANNELS 6 Xposition Yposition Zposition Zrotation Xrotation Yrotation
    JOINT LeftLeg
    {
      OFFSET 0 -44.3705 0.284643
      CHANNELS 6 Xposition Yposition Zposition Zrotation Xrotation Yrotation
      JOINT LeftFoot
      {
        OFFSET 0 -44.4279 -2.98219
        CHANNELS 6 Xposition Yposition Zposition Zrotation Xrotation Yrotation
        JOINT LeftToeBase
        {
          OFFSET 0 -8.72867 10.7106
          CHANNELS 6 Xposition Yposition Zposition Zrotation Xrotation Yrotation
          End Site
          {
            OFFSET 0 -0.000676683 9.27814
          }
        }
      }
    }
  }
  JOINT RightUpLeg
  {
    OFFSET -8.2078 -6.75166 -1.59956
    CHANNELS 6 Xposition Yposition Zposition Zrotation Xrotation Yrotation
    JOINT RightLeg
    {
      OFFSET 0 -44.3705 0.286156
      CHANNELS 6 Xposition Yposition Zposition Zrotation Xrotation Yrotation
      JOINT RightFoot
      {
        OFFSET 0 -44.4277 -2.98379
        CHANNELS 6 Xposition Yposition Zposition Zrotation Xrotation Yrotation
        JOINT RightToeBase
        {
          OFFSET 0 -8.72867 10.7106
          CHANNELS 6 Xposition Yposition Zposition Zrotation Xrotation Yrotation
          End Site
          {
            OFFSET 0 -0.000676369 9.27812
          }
        }
      }
    }
  }
}
MOTION
Frames:	4
Frame Time:	0.0333333
5.10152 101.808 3.16777 5.95887 0.0357951 -2.72973 9.23415e-06 10.1816 0.131521 -0.856148 3.88774 -0.0881654 2.5194e-07 10.0835 -1.0008 -1.53684 1.37001 -0.273196 3.45749e-07 9.10001 -1.37342 -2.05284 -3.11885 -0.412067 6.33429e-07 16.6717 -2.51617 -3.36298 -4.22159 0.31103 -4.24232e-07 9.61788 1.68501 -1.283 -1.87066 0.611519 -6.50824e-07 17.8152 2.58499 -5.46658e-16 -7.95139e-16 3.97569e-16 3.06756 6.40951 9.28355 -5.46658e-16 -7.95139e-16 3.97569e-16 -3.06755 6.4095 9.28355 -5.46658e-16 -7.95139e-16 3.97569e-16 4.57045 10.946 -2.62799 -7.47121 7.72022 -13.4133 10.5924 -0.524583 -2.23212 -70.0389 -0.248726 8.80403 27.8415 -8.94286e-05 3.74589e-05 -0.000192275 -5.8464e-06 -27.6734 28.3288 -1.74407e-05 3.78045e-05 -2.07317 37.4414 -4.33234 2.46614 -1.57505 2.68241 36.3364 25.6076 -9.49919 3.2298 -1.86469 1.86468 -14.3732 -9.89824 26.5955 2.65257 -1.53149 1.53147 4.34632 7.2536 -13.7628 9.1093 -0.517083 2.26007 -9.4086 8.73342 2.86106 3.67641 -6.93914e-06 2.92425e-05 -16.83 -0.458769 2.43186 2.88306 3.8512e-05 -4.27648e-05 -3.87885 -0.0323896 0.177802 9.5334 -3.3924e-05 1.3937e-05 -16.0433 -1.53595 7.16212 3.69824 1.96136e-06 1.7917e-05 -26.8807 -1.00886 3.31832 2.95092 -3.93761e-05 1.6448e-05 -15.8039 -0.241129 1.82622 9.10453 -0.0439395 -1.86508 -33.2643 -3.6501 6.75986 3.15403 -6.55347e-06 1.04257e-05 -16.8471 -0.178232 1.99823 2.93767 -4.54586e-05 -6.86476e-06 -12.2655 0.0319438 1.21071 8.07778 -0.488668 -3.80607 -30.1414 -3.86748 13.0157 3.60003 -2.25222e-06 -2.62388e-05 -29.0023 -0.87065 2.56103 2.11421 1.95383e-05 -2.86442e-06 -6.65358 -0.103335 1.51874 -4.56997 10.9462 -2.62802 0.00608078 -0.394867 9.93726 -10.5928 -0.524798 -2.2321 74.9322 9.37958 -2.18424 -27.8415 -3.30792e-05 1.16763e-05 9.99658e-06 -2.02102e-06 44.821 -28.3288 -1.58142e-07 5.5816e-05 -22.6086 22.571 36.5722 -8.07667 -0.488459 -3.80601 43.7932 -5.43688 -9.49644 -3.60003 3.96767e-05 5.08144e-05 49.01 -2.20849 -4.04053 -2.11421 1.51379e-05 1.47938e-05 43.3045 -2.05719 -1.62228 -9.10359 -0.0439143 -1.86507 38.7562 -4.47123 -7.94355 -3.15403 2.39973e-05 4.88512e-05 23.9346 -0.397607 -2.66591 -2.93767 -4.16007e-05 -3.96606e-05 20.3745 -0.197622 -0.157837 -9.5325 -1.63123e-05 1.67918e-05 20.9188 -2.08247 -3.40034 -3.69824 1.5067e-05 -2.25455e-05 37.9815 -1.75777 -4.15973 -2.95092 -3.11325e-07 -3.03403e-07 31.0696 -0.880803 -3.04939 -9.10828 -0.516789 2.26012 8.6823 -0.505074 1.6777 -3.67641 1.92272e-05 3.23557e-05 26.3708 -0.935613 -3.27822 -2.88306 -4.96012e-05 4.0449e-05 17.1018 -0.325957 -0.47338 -2.46481 -1.57271 2.68263 -14.3456 17.4068 -3.26996 -3.22977 -1.86471 1.86472 -14.9525 5.30299 -3.29267 -2.65261 -1.53145 1.53145 9.17858 -12.4543 9.78658 8.20778 -6.75171 -1.59956 -9.26803 -10.281 4.93959 -4.11016e-07 -44.3705 0.284643 -0.250554 18.1343 -1.02667 4.71639e-07 -44.4279 -2.98219 4.61703 -6.94515 -0.460515 -2.96099e-06 -8.72867 10.7106 -4.84653e-07 -3.87806 -1.86995e-07 -8.2078 -6.75166 -1.59956 -7.2885 -24.1097 -5.77901 8.43557e-08 -44.3705 0.286156 -8.76733 57.7585 16.5102 9.64458e-07 -44.4277 -2.98379 4.63958 2.9444 -14.1959 -2.36044e-06 -8.72867 10.7106 3.24598 -2.49931 -0.00549392 
4.868 101.977 2.86382 4.93208 0.720752 -1.20563 9.23415e-06 10.1816 0.131521 -0.291525 3.29204 -0.623739 2.5194e-07 10.0835 -1.0008 -1.15452 1.43691 -1.34401 3.45749e-07 9.10001 -1.37342 -1.70247 -3.06615 -1.44302 6.33429e-07 16.6717 -2.51617 -3.15403 -3.80087 0.460194 -4.24232e-07 9.61788 1.68501 -1.39524 -1.54358 1.49303 -6.50824e-07 17.8152 2.58499 -6.21202e-17 0 -0 3.06756 6.40951 9.28355 -6.21202e-17 0 -0 -3.06755 6.4095 9.28355 -6.21202e-17 0 -0 4.57045 10.946 -2.62799 -5.73706 7.77734 -15.7348 10.5924 -0.524583 -2.23212 -68.8845 2.35964 5.89136 27.8415 -8.94286e-05 3.74589e-05 -0.000232042 8.34437e-06 -29.8743 28.3288 -1.74407e-05 3.78045e-05 4.08854 34.2451 -8.77787 2.46614 -1.57505 2.68241 35.5963 25.863 -9.22725 3.2298 -1.86469 1.86468 -14.0782 -10.0274 25.925 2.65257 -1.53149 1.53147 7.14444 7.11038 -14.4919 9.1093 -0.517083 2.26007 -5.91681 8.65251 2.49185 3.67641 -6.93914e-06 2.92425e-05 -16.8645 -0.46024 2.43506 2.88306 3.8512e-05 -4.27648e-05 -3.91394 -0.0326344 0.181307 9.5334 -3.3924e-05 1.3937e-05 -14.0935 -1.30042 6.92766 3.69824 1.96136e-06 1.7917e-05 -26.8029 -1.00418 3.31193 2.95092 -3.93761e-05 1.6448e-05 -15.7257 -0.238868 1.81877 9.10453 -0.0439395 -1.86508 -31.6591 -3.4359 6.83185 3.15403 -6.55347e-06 1.04257e-05 -16.8459 -0.178197 1.99808 2.93767 -4.54586e-05 -6.86476e-06 -12.2648 0.0319517 1.21066 8.07778 -0.488668 -3.80607 -28.6964 -3.66656 12.5655 3.60003 -2.25222e-06 -2.62388e-05 -29.1086 -0.876316 2.57008 2.11421 1.95383e-05 -2.86442e-06 -6.76 -0.105484 1.52919 -4.56997 10.9462 -2.62802 0.922858 -0.348098 9.29488 -10.5928 -0.524798 -2.2321 75.5208 6.5816 -4.8667 -27.8415 -3.30792e-05 1.16763e-05 3.09556e-05 4.27289e-06 41.7647 -28.3288 -1.58142e-07 5.5816e-05 -22.7919 26.929 37.3531 -8.07667 -0.488459 -3.80601 43.5335 -5.40849 -9.56816 -3.60003 3.96767e-05 5.08144e-05 49.0898 -2.21484 -4.04543 -2.11421 1.51379e-05 1.47938e-05 43.3843 -2.06316 -1.62766 -9.10359 -0.0439143 -1.86507 38.3706 -4.42046 -8.00253 -3.15403 2.39973e-05 4.88512e-05 23.8696 -0.395254 -2.65992 -2.93767 -4.16007e-05 -3.96606e-05 20.3095 -0.19595 -0.15159 -9.5325 -1.63123e-05 1.67918e-05 20.1026 -1.98729 -3.807 -3.69824 1.5067e-05 -2.25455e-05 37.9526 -1.75561 -4.15772 -2.95092 -3.11325e-07 -3.03403e-07 31.0422 -0.879357 -3.04708 -9.10828 -0.516789 2.26012 8.25889 -0.468248 1.39153 -3.67641 1.92272e-05 3.23557e-05 26.5577 -0.946328 -3.29398 -2.88306 -4.96012e-05 4.0449e-05 17.2889 -0.331519 -0.491344 -2.46481 -1.57271 2.68263 -14.0166 17.8318 -3.30023 -3.22977 -1.86471 1.86472 -15.1813 5.38879 -2.87964 -2.65261 -1.53145 1.53145 9.19939 -12.4217 9.58039 8.20778 -6.75171 -1.59956 -7.74299 -7.1663 6.58036 -4.11016e-07 -44.3705 0.284643 -0.474278 17.6031 -4.09857 4.71639e-07 -44.4279 -2.98219 4.92851 -9.07362 -0.377552 -2.96099e-06 -8.72867 10.7106 2.2437e-06 -4.6656 -1.57081e-06 -8.2078 -6.75166 -1.59956 -5.48768 -29.0447 -5.43438 8.43557e-08 -44.3705 0.286156 -6.87307 49.4337 14.738 9.64458e-07 -44.4277 -2.98379 5.30737 1.40001 -16.3426 -2.36044e-06 -8.72867 10.7106 0.30019 -4.48507 -0.0017409 
4.48348 101.968 2.63914 3.34716 1.16224 0.764076 9.23415e-06 10.1816 0.131521 0.492237 2.69815 -1.10868 2.5194e-07 10.0835 -1.0008 -0.753742 1.66809 -2.37811 3.45749e-07 9.10001 -1.37342 -1.35063 -2.8584 -2.44147 6.33429e-07 16.6717 -2.51617 -2.63467 -3.75802 0.386547 -4.24232e-07 9.61788 1.68501 -1.26338 -1.40635 1.81885 -6.50824e-07 17.8152 2.58499 -4.09993e-16 -3.97569e-16 7.95139e-16 3.06756 6.40951 9.28355 -4.09993e-16 -3.97569e-16 7.95139e-16 -3.06755 6.4095 9.28355 -4.09993e-16 -3.97569e-16 7.95139e-16 4.57045 10.946 -2.62799 -3.14069 7.70782 -18.3651 10.5924 -0.524583 -2.23212 -67.6217 3.42952 3.4174 27.8415 -8.94286e-05 3.74589e-05 -0.000196551 -2.89601e-06 -32.9373 28.3288 -1.74407e-05 3.78045e-05 6.35718 30.2641 -12.1083 2.46614 -1.57505 2.68241 34.8027 26.1513 -8.89215 3.2298 -1.86469 1.86468 -13.9436 -10.2222 25.17 2.65257 -1.53149 1.53147 7.84886 6.96673 -15.2536 9.1093 -0.517083 2.26007 -4.10876 8.28616 2.37757 3.67641 -6.93914e-06 2.92425e-05 -16.8656 -0.460293 2.43517 2.88306 3.8512e-05 -4.27648e-05 -3.91537 -0.0326243 0.181463 9.5334 -3.3924e-05 1.3937e-05 -13.4578 -1.22485 6.86641 3.69824 1.96136e-06 1.7917e-05 -26.8006 -1.00404 3.31174 2.95092 -3.93761e-05 1.6448e-05 -15.7232 -0.238801 1.81853 9.10453 -0.0439395 -1.86508 -31.0407 -3.35663 6.91017 3.15403 -6.55347e-06 1.04257e-05 -16.8467 -0.178226 1.99818 2.93767 -4.54586e-05 -6.86476e-06 -12.2661 0.0319443 1.21078 8.07778 -0.488668 -3.80607 -28.2748 -3.60826 12.3981 3.60003 -2.25222e-06 -2.62388e-05 -29.1278 -0.87734 2.57168 2.11421 1.95383e-05 -2.86442e-06 -6.77924 -0.105889 1.5311 -4.56997 10.9462 -2.62802 2.59125 -0.316088 7.77953 -10.5928 -0.524798 -2.2321 75.0394 4.15958 -7.67128 -27.8415 -3.30792e-05 1.16763e-05 2.8011e-05 1.19813e-05 38.3846 -28.3288 -1.58142e-07 5.5816e-05 -21.9723 31.1857 36.3067 -8.07667 -0.488459 -3.80601 42.2957 -5.27749 -9.95448 -3.60003 3.96767e-05 5.08144e-05 49.0645 -2.21283 -4.04387 -2.11421 1.51379e-05 1.47938e-05 43.359 -2.06127 -1.62596 -9.10359 -0.0439143 -1.86507 37.2292 -4.26974 -8.1608 -3.15403 2.39973e-05 4.88512e-05 23.7474 -0.390762 -2.64863 -2.93767 -4.16007e-05 -3.96606e-05 20.1871 -0.192898 -0.139785 -9.5325 -1.63123e-05 1.67918e-05 18.3085 -1.77103 -4.19797 -3.69824 1.5067e-05 -2.25455e-05 37.9323 -1.75408 -4.15633 -2.95092 -3.11324e-07 -3.03403e-07 31.0238 -0.878388 -3.04551 -9.10828 -0.516789 2.26012 6.81759 -0.326025 1.23578 -3.67641 1.92272e-05 3.23557e-05 26.7147 -0.955387 -3.3072 -2.88306 -4.96012e-05 4.0449e-05 17.4461 -0.336241 -0.506457 -2.46481 -1.57271 2.68263 -14.0409 18.1336 -3.83866 -3.22977 -1.86471 1.86472 -15.4158 5.49836 -2.02424 -2.65261 -1.53145 1.53145 9.22921 -12.3759 9.29204 8.20778 -6.75171 -1.59956 -5.24037 -4.05355 8.17129 -4.11016e-07 -44.3705 0.284643 -0.631672 17.5947 -6.81987 4.71639e-07 -44.4279 -2.98219 4.92242 -11.1084 -2.1371 -2.96099e-06 -8.72867 10.7106 9.88817e-07 -5.83932 -6.67208e-08 -8.2078 -6.75166 -1.59956 -3.58308 -33.3696 -6.25931 8.43557e-08 -44.3705 0.286156 -5.85098 38.7452 12.919 9.64458e-07 -44.4277 -2.98379 6.0846 2.03365 -17.3267 -2.36044e-06 -8.72867 10.7106 4.12914e-06 -1.37978 -3.73945e-06 
4.1223 101.572 2.58535 2.12826 1.19207 2.63421 9.23415e-06 10.1816 0.131521 0.730472 2.2097 -1.51207 2.5194e-07 10.0835 -1.0008 -0.249559 2.1608 -3.1381 3.45749e-07 9.10001 -1.37342 -0.900881 -2.36825 -3.18532 6.33429e-07 16.6717 -2.51617 -2.21125 -4.17364 0.22135 -4.24232e-07 9.61788 1.68501 -0.995261 -1.56507 1.67738 -6.50824e-07 17.8152 2.58499 -3.72721e-16 0 -7.95139e-16 3.06756 6.40951 9.28355 -3.72721e-16 0 -7.95139e-16 -3.06755 6.4095 9.28355 -3.72721e-16 0 -7.95139e-16 4.57045 10.946 -2.62799 -0.357835 7.5028 -21.1514 10.5924 -0.524583 -2.23212 -66.2157 3.16505 1.75614 27.8415 -8.94286e-05 3.74589e-05 -0.000209833 4.98361e-06 -37.2519 28.3288 -1.74407e-05 3.78045e-05 6.62385 24.2501 -13.5685 2.46614 -1.57505 2.68241 33.9625 26.4656 -8.50084 3.2298 -1.86469 1.86468 -13.8878 -10.4538 24.3457 2.65257 -1.53149 1.53147 7.97694 6.78429 -16.2808 9.1093 -0.517083 2.26007 -3.36932 7.72378 2.4511 3.67641 -6.93914e-06 2.92425e-05 -16.8208 -0.458407 2.43102 2.88306 3.8512e-05 -4.27648e-05 -3.87046 -0.0323157 0.176963 9.5334 -3.3924e-05 1.3937e-05 -13.4708 -1.22502 6.74864 3.69824 1.96136e-06 1.7917e-05 -26.8154 -1.00493 3.31295 2.95092 -3.93761e-05 1.6448e-05 -15.7375 -0.23921 1.81989 9.10453 -0.0439395 -1.86508 -30.9939 -3.35684 7.03359 3.15403 -6.55347e-06 1.04257e-05 -16.848 -0.178263 1.99829 2.93767 -4.54586e-05 -6.86476e-06 -12.2676 0.0319032 1.21094 8.07778 -0.488668 -3.80607 -28.3416 -3.61569 12.2511 3.60003 -2.25222e-06 -2.62388e-05 -29.0706 -0.87429 2.56684 2.11421 1.95383e-05 -2.86442e-06 -6.722 -0.104713 1.52547 -4.56997 10.9462 -2.62802 4.36796 -0.373736 5.65273 -10.5928 -0.524798 -2.2321 73.9118 2.26601 -11.1518 -27.8415 -3.30792e-05 1.16763e-05 2.00893e-06 -3.15794e-06 35.8184 -28.3288 -1.58142e-07 5.5816e-05 -19.11 34.8258 32.9441 -8.07667 -0.488459 -3.80601 40.8875 -5.10144 -10.1465 -3.60003 3.96767e-05 5.08144e-05 49.3106 -2.23236 -4.05898 -2.11421 1.51379e-05 1.47938e-05 43.6051 -2.07977 -1.64243 -9.10359 -0.0439143 -1.86507 35.4165 -4.02536 -8.28917 -3.15403 2.39973e-05 4.88512e-05 23.7609 -0.391259 -2.64988 -2.93767 -4.16007e-05 -3.96606e-05 20.2004 -0.193223 -0.141081 -9.5325 -1.63123e-05 1.67918e-05 16.0538 -1.50064 -4.48031 -3.69824 1.5067e-05 -2.25455e-05 37.8934 -1.7512 -4.15364 -2.95092 -3.11324e-07 -3.03403e-07 30.9871 -0.876435 -3.04243 -9.10828 -0.516789 2.26012 4.76353 -0.110781 1.35697 -3.67641 1.92272e-05 3.23557e-05 27.0947 -0.977441 -3.33906 -2.88306 -4.96012e-05 4.0449e-05 17.8265 -0.347848 -0.542938 -2.46481 -1.57271 2.68263 -13.969 18.6898 -4.70967 -3.22977 -1.86471 1.86472 -15.8601 5.4267 -0.658089 -2.65261 -1.53145 1.53145 9.26588 -12.3207 8.94644 8.20778 -6.75171 -1.59956 -2.86584 -0.82678 9.46737 -4.11016e-07 -44.3705 0.284643 -0.768345 18.18 -6.817 4.71639e-07 -44.4279 -2.98219 4.31038 -13.2802 -6.23998 -2.96099e-06 -8.72867 10.7106 -5.42505e-07 -7.60024 1.02054e-06 -8.2078 -6.75166 -1.59956 -2.76397 -36.0528 -9.13126 8.43557e-08 -44.3705 0.286156 -5.091 26.5334 11.8168 9.64458e-07 -44.4277 -2.98379 5.96362 1.49576 -13.9545 -2.36044e-06 -8.72867 10.7106 8.01802e-06 -2.72221 -4.31192e-06 
